<svg width="51" height="50" viewBox="0 0 51 50" fill="none" xmlns="http://www.w3.org/2000/svg">
<path d="M40.0833 14.5846V20.8138C40.0833 20.8138 35.9375 20.8346 35.9167 20.8138V14.5846H29.6667C29.6667 14.5846 29.6875 10.4388 29.6667 10.418H35.9167V4.16797H40.0833V10.418H46.3333V14.5846H40.0833ZM33.8333 22.918V16.668H27.5833V10.418H10.9167C8.625 10.418 6.75 12.293 6.75 14.5846V39.5846C6.75 41.8763 8.625 43.7513 10.9167 43.7513H35.9167C38.2083 43.7513 40.0833 41.8763 40.0833 39.5846V22.918H33.8333ZM10.9167 39.5846L17.1667 31.2513L21.3333 37.5013L27.5833 29.168L35.9167 39.5846H10.9167Z"/>
</svg>
