<svg width="20" height="20" viewBox="0 0 20 20" fill="none" xmlns="http://www.w3.org/2000/svg">
<path d="M15.8332 11C16.3855 11 16.8332 10.5523 16.8332 10C16.8332 9.44772 16.3855 9 15.8332 9V11ZM4.1665 9C3.61422 9 3.1665 9.44772 3.1665 10C3.1665 10.5523 3.61422 11 4.1665 11L4.1665 9ZM15.8332 9L4.1665 9L4.1665 11L15.8332 11V9Z" fill="#43607C"/>
<path d="M8.4594 15.7071C8.84992 16.0976 9.48309 16.0976 9.87361 15.7071C10.2641 15.3166 10.2641 14.6834 9.87361 14.2929L8.4594 15.7071ZM4.1665 10L3.4594 9.29289C3.27186 9.48043 3.1665 9.73478 3.1665 10C3.1665 10.2652 3.27186 10.5196 3.4594 10.7071L4.1665 10ZM9.87361 5.70711C10.2641 5.31658 10.2641 4.68342 9.87361 4.29289C9.48309 3.90237 8.84992 3.90237 8.4594 4.29289L9.87361 5.70711ZM9.87361 14.2929L4.87361 9.29289L3.4594 10.7071L8.4594 15.7071L9.87361 14.2929ZM4.87361 10.7071L9.87361 5.70711L8.4594 4.29289L3.4594 9.29289L4.87361 10.7071Z" fill="#43607C"/>
</svg>
