<svg width="94" height="93" viewBox="0 0 94 93" fill="none" xmlns="http://www.w3.org/2000/svg">
<path d="M47 81.375C66.2609 81.375 81.875 65.7609 81.875 46.5C81.875 27.2391 66.2609 11.625 47 11.625C27.7391 11.625 12.125 27.2391 12.125 46.5C12.125 65.7609 27.7391 81.375 47 81.375Z" stroke="#84A6C2" stroke-width="7.75" stroke-miterlimit="10" stroke-linecap="round" stroke-linejoin="round"/>
<path d="M61.365 41.49C62.8783 39.9768 62.8783 37.5232 61.365 36.01C59.8518 34.4967 57.3982 34.4967 55.885 36.01L61.365 41.49ZM43.125 54.25L40.385 56.99C41.8982 58.5033 44.3518 58.5033 45.865 56.99L43.125 54.25ZM38.115 43.76C36.6018 42.2467 34.1482 42.2467 32.635 43.76C31.1217 45.2732 31.1217 47.7268 32.635 49.24L38.115 43.76ZM55.885 36.01L40.385 51.51L45.865 56.99L61.365 41.49L55.885 36.01ZM45.865 51.51L38.115 43.76L32.635 49.24L40.385 56.99L45.865 51.51Z" fill="#84A6C2"/>
</svg>
