<svg width="20" height="20" viewBox="0 0 20 20" fill="none" xmlns="http://www.w3.org/2000/svg">
<g clip-path="url(#clip0_2110_11354)">
<path d="M9.99967 5.83333C12.2997 5.83333 14.1663 7.7 14.1663 10C14.1663 10.5417 14.058 11.05 13.8663 11.525L16.2997 13.9583C17.558 12.9083 18.5497 11.55 19.158 10C17.7163 6.34167 14.158 3.75 9.99134 3.75C8.82467 3.75 7.70801 3.95833 6.67467 4.33333L8.47467 6.13333C8.94967 5.94167 9.45801 5.83333 9.99967 5.83333ZM1.66634 3.55833L3.56634 5.45833L3.94967 5.84167C2.56634 6.91667 1.48301 8.35 0.833008 10C2.27467 13.6583 5.83301 16.25 9.99967 16.25C11.2913 16.25 12.5247 16 13.6497 15.55L13.9997 15.9L16.4413 18.3333L17.4997 17.275L2.72467 2.5L1.66634 3.55833ZM6.27467 8.16667L7.56634 9.45833C7.52467 9.63333 7.49967 9.81667 7.49967 10C7.49967 11.3833 8.61634 12.5 9.99967 12.5C10.183 12.5 10.3663 12.475 10.5413 12.4333L11.833 13.725C11.2747 14 10.658 14.1667 9.99967 14.1667C7.69967 14.1667 5.83301 12.3 5.83301 10C5.83301 9.34167 5.99967 8.725 6.27467 8.16667ZM9.86634 7.51667L12.4913 10.1417L12.508 10.0083C12.508 8.625 11.3913 7.50833 10.008 7.50833L9.86634 7.51667Z" fill="#FDAD6D"/>
</g>
<defs>
<clipPath id="clip0_2110_11354">
<rect width="20" height="20" fill="white"/>
</clipPath>
</defs>
</svg>
