<svg width="50" height="50" viewBox="0 0 50 50" fill="none" xmlns="http://www.w3.org/2000/svg">
<path d="M25.0007 9.375C14.584 9.375 5.68815 15.8542 2.08398 25C5.68815 34.1458 14.584 40.625 25.0007 40.625C35.4173 40.625 44.3132 34.1458 47.9173 25C44.3132 15.8542 35.4173 9.375 25.0007 9.375ZM25.0007 35.4167C19.2507 35.4167 14.584 30.75 14.584 25C14.584 19.25 19.2507 14.5833 25.0007 14.5833C30.7507 14.5833 35.4173 19.25 35.4173 25C35.4173 30.75 30.7507 35.4167 25.0007 35.4167ZM25.0007 18.75C21.5423 18.75 18.7507 21.5417 18.7507 25C18.7507 28.4583 21.5423 31.25 25.0007 31.25C28.459 31.25 31.2507 28.4583 31.2507 25C31.2507 21.5417 28.459 18.75 25.0007 18.75Z"/>
</svg>
