<svg width="24" height="30" viewBox="0 0 24 30" fill="none" xmlns="http://www.w3.org/2000/svg">
<path d="M20.9996 30H3.00036C1.34358 30 0.000488281 28.6569 0.000488281 27.0001V3.00118C0.000488281 1.34439 1.34358 0.00130715 3.00036 0.00130715H13.4999C13.5133 -0.000435718 13.527 -0.000435718 13.5404 0.00130715H13.5494C13.5636 0.00574405 13.5781 0.00875881 13.5929 0.0103068C13.7252 0.0187862 13.8558 0.0445025 13.9814 0.0868034H14.0039H14.0264H14.0444C14.0721 0.106191 14.0981 0.127759 14.1224 0.151301C14.2858 0.223933 14.4347 0.32557 14.5619 0.451288L23.5615 9.4509C23.6872 9.57807 23.7888 9.72697 23.8614 9.89038C23.8749 9.92338 23.8854 9.95487 23.8959 9.98937L23.9109 10.0314C23.9528 10.1565 23.9775 10.2866 23.9844 10.4184C23.9857 10.4333 23.9893 10.448 23.9949 10.4619V10.4709C23.9974 10.4807 23.9989 10.4907 23.9994 10.5008V27.0001C23.9994 27.7957 23.6834 28.5588 23.1208 29.1214C22.5582 29.6839 21.7952 30 20.9996 30ZM13.4999 3.00118V10.5008H20.9996L13.4999 3.00118Z" fill="#2E3A59"/>
</svg>
