<svg width="50" height="50" viewBox="0 0 50 50" fill="none" xmlns="http://www.w3.org/2000/svg">
<path fill-rule="evenodd" clip-rule="evenodd" d="M0 25C0 11.1929 11.1929 0 25 0C38.8071 0 50 11.1929 50 25C50 38.8071 38.8071 50 25 50C11.1929 50 0 38.8071 0 25ZM24.9646 18.3555C26.9959 18.3555 28.3662 19.2342 29.1474 19.9685L32.2004 16.9833C30.3254 15.2379 27.8854 14.1666 24.9646 14.1666C20.7337 14.1666 17.0797 16.5981 15.3008 20.137L18.7985 22.8574C19.6759 20.2453 22.1039 18.3555 24.9646 18.3555ZM35.1215 23.0259C35.2777 23.7 35.3498 24.35 35.3498 25.2407C35.3498 28.5388 34.1719 31.3194 32.1286 33.2092L28.715 30.5611C30.1573 29.55 30.8064 28.0453 30.9266 27.0462H24.9648V23.0259H35.1215ZM18.8101 27.1426C18.5817 26.4686 18.4495 25.7463 18.4495 25C18.4495 24.2538 18.5817 23.5315 18.7981 22.8575L15.3004 20.1371C14.5672 21.6056 14.1465 23.2547 14.1465 25C14.1465 26.7454 14.5672 28.3945 15.3004 29.863L18.8101 27.1426ZM18.8101 27.1426L15.3125 29.8629C17.0914 33.4018 20.7334 35.8333 24.9643 35.8333C27.8851 35.8333 30.3371 34.8704 32.128 33.2092L28.7144 30.5611C27.8009 31.1991 26.5749 31.6444 24.9643 31.6444C22.1036 31.6444 19.6756 29.7546 18.8102 27.1426L18.8101 27.1426Z"/>
</svg>
