<svg width="50" height="50" viewBox="0 0 50 50" fill="none" xmlns="http://www.w3.org/2000/svg">
<path fill-rule="evenodd" clip-rule="evenodd" d="M25 0C11.1929 0 0 11.1929 0 25C0 38.8071 11.1929 50 25 50C38.8071 50 50 38.8071 50 25C50 11.1929 38.8071 0 25 0ZM19.5028 11.7472C20.925 11.6825 21.3794 11.6667 25.0006 11.6667H24.9964C28.6187 11.6667 29.0715 11.6825 30.4937 11.7472C31.9132 11.8122 32.8826 12.037 33.7326 12.3667C34.6104 12.707 35.3521 13.1625 36.0938 13.9042C36.8354 14.6453 37.291 15.3892 37.6327 16.2662C37.9605 17.114 38.1855 18.0829 38.2521 19.5023C38.316 20.9246 38.3327 21.379 38.3327 25.0002C38.3327 28.6213 38.316 29.0746 38.2521 30.4969C38.1855 31.9158 37.9605 32.885 37.6327 33.733C37.291 34.6097 36.8354 35.3536 36.0938 36.0947C35.3529 36.8364 34.6101 37.2931 33.7335 37.6336C32.8851 37.9633 31.9151 38.1881 30.4957 38.2531C29.0734 38.3178 28.6204 38.3336 24.9989 38.3336C21.3781 38.3336 20.9239 38.3178 19.5017 38.2531C18.0825 38.1881 17.1133 37.9633 16.265 37.6336C15.3886 37.2931 14.6447 36.8364 13.9038 36.0947C13.1624 35.3536 12.7069 34.6097 12.366 33.7327C12.0366 32.885 11.8119 31.9161 11.7466 30.4966C11.6821 29.0744 11.666 28.6213 11.666 25.0002C11.666 21.379 11.6827 20.9243 11.7463 19.502C11.8102 18.0831 12.0352 17.114 12.3657 16.2659C12.7074 15.3892 13.163 14.6453 13.9047 13.9042C14.6458 13.1628 15.3897 12.7073 16.2666 12.3667C17.1144 12.037 18.0833 11.8122 19.5028 11.7472Z"/>
<path fill-rule="evenodd" clip-rule="evenodd" d="M23.8049 14.0697C24.0371 14.0694 24.287 14.0695 24.5566 14.0696L25.001 14.0697C28.561 14.0697 28.983 14.0825 30.3888 14.1464C31.6888 14.2059 32.3944 14.4231 32.8644 14.6056C33.4866 14.8472 33.9302 15.1361 34.3966 15.6028C34.8633 16.0695 35.1522 16.5139 35.3944 17.1362C35.5769 17.6056 35.7944 18.3112 35.8536 19.6112C35.9175 21.0168 35.9314 21.439 35.9314 24.9974C35.9314 28.5557 35.9175 28.978 35.8536 30.3835C35.7942 31.6835 35.5769 32.3891 35.3944 32.8585C35.1528 33.4808 34.8633 33.9238 34.3966 34.3902C33.93 34.8569 33.4869 35.1458 32.8644 35.3875C32.395 35.5708 31.6888 35.7875 30.3888 35.8469C28.9832 35.9108 28.561 35.9247 25.001 35.9247C21.4407 35.9247 21.0187 35.9108 19.6131 35.8469C18.3131 35.7869 17.6076 35.5697 17.1373 35.3872C16.5151 35.1455 16.0706 34.8566 15.6039 34.39C15.1373 33.9233 14.8484 33.4799 14.6062 32.8574C14.4236 32.388 14.2061 31.6824 14.147 30.3824C14.0831 28.9768 14.0703 28.5546 14.0703 24.994C14.0703 21.4334 14.0831 21.0134 14.147 19.6079C14.2064 18.3078 14.4236 17.6023 14.6062 17.1323C14.8478 16.51 15.1373 16.0656 15.6039 15.5989C16.0706 15.1323 16.5151 14.8434 17.1373 14.6011C17.6073 14.4178 18.3131 14.2011 19.6131 14.1414C20.8432 14.0859 21.3198 14.0692 23.8049 14.0664V14.0697ZM32.1176 16.2836C31.2343 16.2836 30.5176 16.9995 30.5176 17.8831C30.5176 18.7664 31.2343 19.4831 32.1176 19.4831C33.0009 19.4831 33.7176 18.7664 33.7176 17.8831C33.7176 16.9998 33.0009 16.2831 32.1176 16.2831V16.2836ZM18.1543 25.0004C18.1543 21.2191 21.22 18.1533 25.0013 18.1531C28.7827 18.1531 31.8478 21.219 31.8478 25.0004C31.8478 28.7819 28.783 31.8463 25.0016 31.8463C21.2202 31.8463 18.1543 28.7819 18.1543 25.0004Z"/>
<path d="M25.0011 20.5547C27.4556 20.5547 29.4456 22.5444 29.4456 24.9992C29.4456 27.4536 27.4556 29.4437 25.0011 29.4437C22.5464 29.4437 20.5566 27.4536 20.5566 24.9992C20.5566 22.5444 22.5464 20.5547 25.0011 20.5547Z"/>
</svg>
