<svg width="50" height="50" viewBox="0 0 50 50" fill="none" xmlns="http://www.w3.org/2000/svg">
<path d="M24.9993 4.16797C16.9368 4.16797 10.416 10.6888 10.416 18.7513C10.416 22.3763 11.4577 25.7721 13.3535 28.8346C15.3327 32.043 17.9368 34.793 19.9368 38.0013C20.916 39.5638 21.6243 41.0221 22.3743 42.7096C22.916 43.8555 23.3535 45.8346 24.9993 45.8346C26.6452 45.8346 27.0827 43.8555 27.6035 42.7096C28.3743 41.0221 29.0618 39.5638 30.041 38.0013C32.041 34.8138 34.6452 32.0638 36.6243 28.8346C38.541 25.7721 39.5827 22.3763 39.5827 18.7513C39.5827 10.6888 33.0618 4.16797 24.9993 4.16797ZM24.9993 24.4805C22.1243 24.4805 19.791 22.1471 19.791 19.2721C19.791 16.3971 22.1243 14.0638 24.9993 14.0638C27.8743 14.0638 30.2077 16.3971 30.2077 19.2721C30.2077 22.1471 27.8743 24.4805 24.9993 24.4805Z"/>
</svg>
