<svg width="50" height="50" viewBox="0 0 50 50" fill="none" xmlns="http://www.w3.org/2000/svg">
<path d="M22.916 37.4993C22.916 36.3488 23.8488 35.416 24.9993 35.416C26.1499 35.416 27.0827 36.3488 27.0827 37.4993C27.0827 38.6499 26.1499 39.5827 24.9993 39.5827C23.8488 39.5827 22.916 38.6499 22.916 37.4993Z" stroke-width="4" stroke-linecap="round" stroke-linejoin="round"/>
<path d="M22.916 24.9993C22.916 23.8488 23.8488 22.916 24.9993 22.916C26.1499 22.916 27.0827 23.8488 27.0827 24.9993C27.0827 26.1499 26.1499 27.0827 24.9993 27.0827C23.8488 27.0827 22.916 26.1499 22.916 24.9993Z" stroke-width="4" stroke-linecap="round" stroke-linejoin="round"/>
<path d="M22.916 12.4993C22.916 11.3488 23.8488 10.416 24.9993 10.416C26.1499 10.416 27.0827 11.3488 27.0827 12.4993C27.0827 13.6499 26.1499 14.5827 24.9993 14.5827C23.8488 14.5827 22.916 13.6499 22.916 12.4993Z" stroke-width="4" stroke-linecap="round" stroke-linejoin="round"/>
</svg>
