<svg width="22" height="20" viewBox="0 0 22 20" fill="none" xmlns="http://www.w3.org/2000/svg">
<path d="M14.5833 10C14.5833 8.85417 13.6458 7.91667 12.5 7.91667C11.3542 7.91667 10.4167 8.85417 10.4167 10C10.4167 11.1458 11.3542 12.0833 12.5 12.0833C13.6458 12.0833 14.5833 11.1458 14.5833 10ZM12.5 0.625C7.32292 0.625 3.125 4.82292 3.125 10H0L4.16667 14.1667L8.33333 10H5.20833C5.20833 5.96875 8.46875 2.70833 12.5 2.70833C16.5312 2.70833 19.7917 5.96875 19.7917 10C19.7917 14.0312 16.5312 17.2917 12.5 17.2917C10.9271 17.2917 9.46875 16.7813 8.27083 15.9375L6.79167 17.4375C8.375 18.6458 10.3542 19.375 12.5 19.375C17.6771 19.375 21.875 15.1771 21.875 10C21.875 4.82292 17.6771 0.625 12.5 0.625Z" fill="#43607C"/>
</svg>
