<svg width="51" height="50" viewBox="0 0 51 50" fill="none" xmlns="http://www.w3.org/2000/svg">
<path d="M29.1037 43.2662L30.8926 42.3718L30.8926 42.3718L29.1037 43.2662ZM32.9583 42.9472L31.0468 42.359L32.9583 42.9472ZM21.1926 28.3757L22.087 26.5868L22.087 26.5868L21.1926 28.3757ZM22.1243 29.3074L20.3355 30.2018L20.3355 30.2018L22.1243 29.3074ZM7.55281 17.5417L8.14098 19.4532L7.55281 17.5417ZM7.2338 21.3963L6.33937 23.1851L6.33937 23.1851L7.2338 21.3963ZM40.4885 7.40764L41.0766 9.3192L40.4885 7.40764ZM43.0924 10.0115L41.1808 9.42335L43.0924 10.0115ZM41.0766 9.3192L8.14098 19.4532L6.96464 15.6301L39.9003 5.49608L41.0766 9.3192ZM8.12823 19.6074L22.087 26.5868L20.2982 30.1645L6.33937 23.1851L8.12823 19.6074ZM23.9132 28.413L30.8926 42.3718L27.3149 44.1606L20.3355 30.2018L23.9132 28.413ZM31.0468 42.359L41.1808 9.42335L45.0039 10.5997L34.8699 43.5354L31.0468 42.359ZM30.8926 42.3718C30.9058 42.3983 30.9153 42.4078 30.9162 42.4087C30.9175 42.41 30.9176 42.4101 30.9184 42.4104C30.9217 42.4122 30.9411 42.4203 30.974 42.4176C31.0069 42.4148 31.0246 42.4037 31.0277 42.4014C31.0283 42.4009 31.0285 42.4008 31.0295 42.3993C31.0303 42.3983 31.038 42.3874 31.0468 42.359L34.8699 43.5354C33.7865 47.0563 28.9623 47.4555 27.3149 44.1606L30.8926 42.3718ZM22.087 26.5868C22.8773 26.982 23.518 27.6227 23.9132 28.413L20.3355 30.2018C20.3274 30.1857 20.3143 30.1726 20.2982 30.1645L22.087 26.5868ZM8.14098 19.4532C8.11262 19.462 8.1017 19.4697 8.10067 19.4705C8.09915 19.4715 8.09909 19.4717 8.0986 19.4723C8.09628 19.4754 8.08517 19.4931 8.08244 19.526C8.07972 19.5589 8.08776 19.5783 8.08955 19.5816C8.08993 19.5824 8.08996 19.5825 8.09129 19.5838C8.09219 19.5847 8.10169 19.5942 8.12823 19.6074L6.33937 23.1851C3.04447 21.5377 3.44372 16.7135 6.96464 15.6301L8.14098 19.4532ZM39.9003 5.49608C43.0333 4.53207 45.9679 7.46665 45.0039 10.5997L41.1808 9.42335C41.187 9.40309 41.1874 9.39235 41.1875 9.38934C41.1875 9.38588 41.1872 9.38348 41.1865 9.38076C41.1846 9.37398 41.1778 9.35769 41.1601 9.33992C41.1423 9.32215 41.126 9.31535 41.1192 9.31353C41.1165 9.3128 41.1141 9.31245 41.1107 9.31251C41.1077 9.31255 41.0969 9.31296 41.0766 9.3192L39.9003 5.49608Z"/>
</svg>
