<svg width="51" height="50" viewBox="0 0 51 50" fill="none" xmlns="http://www.w3.org/2000/svg">
<path fill-rule="evenodd" clip-rule="evenodd" d="M49.9104 29.0315L47.7 27.1249C47.8567 25.3619 47.812 23.6029 47.5659 21.8744L49.6942 19.8331C50.2078 19.3404 50.36 18.5797 50.0743 17.9282L47.3029 11.5934C47.0144 10.9346 46.3363 10.5256 45.6242 10.5815L42.6841 10.7975C41.5682 9.42539 40.2917 8.20938 38.8743 7.16749L38.9608 4.23539C38.9817 3.51596 38.5474 2.86157 37.8755 2.60249L31.4277 0.11413C30.7585 -0.144364 29.999 0.0456733 29.5318 0.588638L27.6252 2.79897C25.8628 2.64282 24.1037 2.68755 22.3747 2.93354L20.3334 0.805238C19.8408 0.292253 19.08 0.13952 18.4285 0.425162L12.0938 3.19663C11.4349 3.48569 11.0287 4.15814 11.0818 4.87591L11.2974 7.81651C9.92521 8.93301 8.70862 10.2096 7.66732 11.6259L4.73522 11.5399C4.00329 11.5128 3.3614 11.9534 3.10232 12.6248L0.613762 19.0725C0.355854 19.7416 0.545892 20.5 1.08827 20.9684L3.2986 22.8762C3.14245 24.638 3.18777 26.397 3.43317 28.126L1.30497 30.1672C0.791398 30.6599 0.639836 31.42 0.924893 32.0716L3.69636 38.4063C3.98483 39.0658 4.65621 39.4669 5.37564 39.4187L8.31624 39.2021C9.43274 40.5749 10.7093 41.7909 12.1256 42.8326L12.0396 45.7648C12.0182 46.4842 12.4531 47.1386 13.1245 47.3976L19.5723 49.8863C19.7714 49.9633 19.9785 50 20.1831 50C20.6667 50 21.139 49.7924 21.4682 49.4106L23.3754 47.1997C25.1372 47.3559 26.8957 47.3111 28.6253 47.0656L30.6666 49.1939C31.1592 49.7081 31.92 49.8596 32.5709 49.574L38.9057 46.8025C39.5651 46.5141 39.9707 45.8416 39.918 45.1238L39.7014 42.1838C41.0742 41.0679 42.2896 39.7914 43.332 38.374L46.2641 38.4605C46.9626 38.4899 47.6379 38.047 47.897 37.3752L50.3856 30.9274C50.6434 30.2583 50.4533 29.4993 49.9104 29.0315ZM13.3418 25.0006C13.3418 18.2955 18.797 12.8403 25.5022 12.8403C32.2075 12.8403 37.6626 18.2955 37.6626 25.0006C37.6626 31.7058 32.208 37.161 25.5022 37.161C18.797 37.161 13.3418 31.7058 13.3418 25.0006Z"/>
</svg>
