<svg width="20" height="20" viewBox="0 0 20 20" fill="none" xmlns="http://www.w3.org/2000/svg">
<g clip-path="url(#clip0_178_10002)">
<path d="M12.9165 9.1665C13.6069 9.1665 14.1665 8.60686 14.1665 7.9165C14.1665 7.22615 13.6069 6.6665 12.9165 6.6665C12.2261 6.6665 11.6665 7.22615 11.6665 7.9165C11.6665 8.60686 12.2261 9.1665 12.9165 9.1665Z" fill="#84A6C2"/>
<path d="M7.0835 9.1665C7.77385 9.1665 8.3335 8.60686 8.3335 7.9165C8.3335 7.22615 7.77385 6.6665 7.0835 6.6665C6.39314 6.6665 5.8335 7.22615 5.8335 7.9165C5.8335 8.60686 6.39314 9.1665 7.0835 9.1665Z" fill="#84A6C2"/>
<path d="M12.9165 9.1665C13.6069 9.1665 14.1665 8.60686 14.1665 7.9165C14.1665 7.22615 13.6069 6.6665 12.9165 6.6665C12.2261 6.6665 11.6665 7.22615 11.6665 7.9165C11.6665 8.60686 12.2261 9.1665 12.9165 9.1665Z" fill="#84A6C2"/>
<path d="M7.0835 9.1665C7.77385 9.1665 8.3335 8.60686 8.3335 7.9165C8.3335 7.22615 7.77385 6.6665 7.0835 6.6665C6.39314 6.6665 5.8335 7.22615 5.8335 7.9165C5.8335 8.60686 6.39314 9.1665 7.0835 9.1665Z" fill="#84A6C2"/>
<path d="M9.9915 1.6665C5.3915 1.6665 1.6665 5.39984 1.6665 9.99984C1.6665 14.5998 5.3915 18.3332 9.9915 18.3332C14.5998 18.3332 18.3332 14.5998 18.3332 9.99984C18.3332 5.39984 14.5998 1.6665 9.9915 1.6665ZM9.99984 16.6665C6.3165 16.6665 3.33317 13.6832 3.33317 9.99984C3.33317 6.3165 6.3165 3.33317 9.99984 3.33317C13.6832 3.33317 16.6665 6.3165 16.6665 9.99984C16.6665 13.6832 13.6832 16.6665 9.99984 16.6665ZM9.99984 14.5832C11.9415 14.5832 13.5998 13.3748 14.2665 11.6665H12.8748C12.2998 12.6582 11.2332 13.3332 9.99984 13.3332C8.7665 13.3332 7.70817 12.6582 7.12484 11.6665H5.73317C6.39984 13.3748 8.05817 14.5832 9.99984 14.5832Z" fill="#84A6C2"/>
</g>
<defs>
<clipPath id="clip0_178_10002">
<rect width="20" height="20" fill="white"/>
</clipPath>
</defs>
</svg>
