<svg width="50" height="50" viewBox="0 0 50 50" fill="none" xmlns="http://www.w3.org/2000/svg">
<path d="M12.5 12.5V10.5C11.3954 10.5 10.5 11.3954 10.5 12.5H12.5ZM37.5 12.5H39.5C39.5 11.3954 38.6046 10.5 37.5 10.5V12.5ZM12.5 14.5H37.5V10.5H12.5V14.5ZM35.5 12.5V41.6667H39.5V12.5H35.5ZM35.4167 41.75H14.5833V45.75H35.4167V41.75ZM14.5 41.6667V12.5H10.5V41.6667H14.5ZM14.5833 41.75C14.5373 41.75 14.5 41.7127 14.5 41.6667H10.5C10.5 43.9218 12.3282 45.75 14.5833 45.75V41.75ZM35.5 41.6667C35.5 41.7127 35.4627 41.75 35.4167 41.75V45.75C37.6718 45.75 39.5 43.9218 39.5 41.6667H35.5Z"/>
<path d="M8.33398 12.5H41.6673" stroke-width="4" stroke-linecap="round" stroke-linejoin="round"/>
<path d="M33.3327 12.5V14.5C34.4373 14.5 35.3327 13.6046 35.3327 12.5H33.3327ZM16.666 12.5H14.666C14.666 13.6046 15.5614 14.5 16.666 14.5V12.5ZM18.7493 8.25H31.2493V4.25H18.7493V8.25ZM31.3327 8.33333V12.5H35.3327V8.33333H31.3327ZM33.3327 10.5H16.666V14.5H33.3327V10.5ZM18.666 12.5V8.33333H14.666V12.5H18.666ZM31.2493 8.25C31.2954 8.25 31.3327 8.28731 31.3327 8.33333H35.3327C35.3327 6.07817 33.5045 4.25 31.2493 4.25V8.25ZM18.7493 4.25C16.4942 4.25 14.666 6.07817 14.666 8.33333H18.666C18.666 8.28731 18.7033 8.25 18.7493 8.25V4.25Z"/>
</svg>
