<svg width="50" height="50" viewBox="0 0 50 50" fill="none" xmlns="http://www.w3.org/2000/svg">
<path fill-rule="evenodd" clip-rule="evenodd" d="M25 0C11.1929 0 0 11.1929 0 25C0 38.8071 11.1929 50 25 50C38.8071 50 50 38.8071 50 25C50 11.1929 38.8071 0 25 0ZM35.4177 16.4056C36.5651 16.7204 37.4687 17.6481 37.7754 18.8263C38.3327 20.9615 38.3327 25.4167 38.3327 25.4167C38.3327 25.4167 38.3327 29.8717 37.7754 32.0071C37.4687 33.1852 36.5651 34.1129 35.4177 34.4279C33.3383 35 24.9993 35 24.9993 35C24.9993 35 16.6604 35 14.5809 34.4279C13.4334 34.1129 12.5298 33.1852 12.2231 32.0071C11.666 29.8717 11.666 25.4167 11.666 25.4167C11.666 25.4167 11.666 20.9615 12.2231 18.8263C12.5298 17.6481 13.4334 16.7204 14.5809 16.4056C16.6604 15.8333 24.9993 15.8333 24.9993 15.8333C24.9993 15.8333 33.3383 15.8333 35.4177 16.4056Z"/>
<path d="M22.5 29.9993V21.666L29.1667 25.8328L22.5 29.9993Z"/>
</svg>
